# xmcd
#
# Track frame offsets:
#	150
#	25356
#	50393
#	76606
#	100323
#	127826
#	156365
#	188872
#	206318
#	217545
#	240772
#	250183
#	281995
#	302560
#	320317
#
# Disc length: 4347 seconds
#
# Revision: 0
# Processed by: cddbd v1.4PL0 Copyright (c) Steve Scherf et al.
# Submitted via: EasyCDDAExtractor 4.6.0.1
#
DISCID=b710f90f
DTITLE=Stan Webb's Chicken Shack - Poor Boy in concert
DYEAR=1973
DGENRE=Blues
TTITLE0=Everyday I have the blues
TTITLE1=The thrill is gone
TTITLE2=Going down
TTITLE3=You take me down
TTITLE4=Webb's Boogie
TTITLE5=You're mean
TTITLE6=Poor boy
TTITLE7=Webb's guitar boogie shuffle
TTITLE8=Tuttie Frutti
TTITLE9=Tell me
TTITLE10=Why I sing the blues
TTITLE11=Back door man
TTITLE12=Poor boy
TTITLE13=Shake your money maker
TTITLE14=Hideaway
EXTD=
EXTT0=
EXTT1=
EXTT2=
EXTT3=
EXTT4=
EXTT5=
EXTT6=
EXTT7=
EXTT8=
EXTT9=
EXTT10=
EXTT11=
EXTT12=
EXTT13=
EXTT14=
PLAYORDER=
